<svg width="64" height="104" viewBox="0 0 64 104" fill="none" xmlns="http://www.w3.org/2000/svg">
<mask id="mask0_5027_10880" style="mask-type:luminance" maskUnits="userSpaceOnUse" x="0" y="20" width="64" height="64">
<path d="M64 20H0V84H64V20Z" fill="white"/>
</mask>
<g mask="url(#mask0_5027_10880)">
<path d="M32 84C49.6731 84 64 69.6731 64 52C64 34.3269 49.6731 20 32 20C14.3269 20 0 34.3269 0 52C0 69.6731 14.3269 84 32 84Z" fill="black"/>
<path fill-rule="evenodd" clip-rule="evenodd" d="M13 41.5095V62.5L19.3067 62.4621V53.9474C20.0567 53.9474 20.7616 53.9775 21.4049 54.4267C21.8946 54.8785 22.2838 55.4335 22.546 56.054L25.9202 62.4621H33C31.5957 59.6675 30.4706 56.1327 28.0552 54.0104C27.5455 53.6749 26.9919 53.4158 26.411 53.241C27.1873 53.0779 27.9357 52.7973 28.6319 52.4084C30.3855 51.3375 31.3915 49.3808 31.3436 47.3374C31.3798 46.1328 31.0495 44.9466 30.3988 43.9441C28.9256 41.6883 25.9337 41.4213 23.4663 41.5095H13ZM21.9939 50.0116H19.3313V45.6975H22.1043C23.4807 45.5594 25.1814 46.1754 25.0859 47.8041C25.1499 49.5621 23.3647 49.9127 21.9939 50.0116Z" fill="#FFB749"/>
<path d="M39.4768 55.089L33 55.4666C33.1262 57.3671 34.0021 59.16 35.4636 60.5088C36.9117 61.8323 39.5076 62.4941 43.2515 62.4941C46.3564 62.5823 49.9058 61.8146 51.821 59.1569C52.5929 58.0934 53.0033 56.8427 52.9998 55.564C53.0217 53.1848 51.4339 51.2297 49.3044 50.3147C47.2632 49.4766 45.1198 48.8674 42.9204 48.5C42.1107 48.41 41.3327 48.1563 40.6423 47.757C39.9039 47.2597 40.078 46.2272 40.735 45.7596C42.6084 44.5207 45.6299 45.5545 45.8608 47.9032L52.2845 47.5621C52.1703 45.768 51.1844 44.0545 49.6356 42.9583C47.6987 41.8887 45.4532 41.3874 43.1986 41.5212C41.3493 41.4527 39.5037 41.7218 37.7682 42.3128C35.6082 43.1125 33.829 45.064 33.8344 47.4525C33.7931 48.9377 34.5158 50.4088 35.755 51.3621C37.6454 52.6238 39.8325 53.4582 42.139 53.798C43.3833 53.9637 44.5727 54.3795 45.6224 55.0159C46.5878 55.7309 46.5807 57.167 45.5959 57.8903C44.5078 58.6532 42.9034 58.7416 41.6818 58.2468C40.3717 57.716 39.6048 56.4784 39.4768 55.089Z" fill="#FFB749"/>
</g>
</svg>
